<?xml version="1.0" encoding="UTF-8"?>
<svg id="Layer_1" data-name="Layer 1" xmlns="http://www.w3.org/2000/svg" viewBox="0 0 262.66 57.58">
  <defs>
    <style>
      .cls-1 {
        fill: #fff;
      }
    </style>
  </defs>
  <path class="cls-1" d="M0,0h7.03v27.97h.7L32.89,0h9.22l-23.67,25.55,23.67,31.02h-8.59L14.06,30.39l-7.03,7.97v18.2H0V0Z"/>
  <path class="cls-1" d="M52.89,0l15.55,26.25h.7L84.69,0h8.12l-20.47,33.36v23.2h-7.11v-23.2L44.84,0h8.05Z"/>
  <path class="cls-1" d="M144.45,0v37.42c0,11.64-8.67,20.16-22.03,20.16s-22.03-8.52-22.03-20.16V0h7.03v36.88c0,8.2,5.7,14.14,15,14.14s15-5.94,15-14.14V0h7.03Z"/>
  <path class="cls-1" d="M185.7,0v40.39c0,10.86-6.41,16.95-16.25,16.95s-16.17-5.39-16.17-14.14h6.95c0,4.77,3.91,7.89,9.22,7.89,5.86,0,9.14-3.67,9.14-10.7V0h7.11Z"/>
  <path class="cls-1" d="M205.23,56.56h-7.03V0h7.03v56.56Z"/>
  <path class="cls-1" d="M262.66,56.56h-6.72l-30.62-44.06h-.55v44.06h-7.03V0h6.8l30.62,44.14h.55V0h6.95v56.56Z"/>
</svg>