<?xml version="1.0" encoding="UTF-8"?>
<svg id="Layer_1" data-name="Layer 1" xmlns="http://www.w3.org/2000/svg" viewBox="0 0 1356.2 181.64">
  <defs>
    <style>
      .cls-1 {
        fill: #fff;
      }
    </style>
  </defs>
  <path class="cls-1" d="M0,2.44h69.34c40.28,0,63.23,24.66,63.23,59.57s-23.44,59.57-64.21,59.57h-31.74v57.62H0V2.44ZM62.5,92.04c21.73,0,32.23-12.21,32.23-30.03s-10.5-29.54-32.23-29.54h-25.88v59.57h25.88Z"/>
  <path class="cls-1" d="M235.11,181.64c-47.12,0-82.76-33.45-82.76-90.82S187.99,0,235.11,0s82.52,33.2,82.52,90.82-35.89,90.82-82.52,90.82ZM235.11,32.47c-27.34,0-45.41,20.51-45.41,58.35s18.07,58.35,45.41,58.35,45.17-20.51,45.17-58.35-17.82-58.35-45.17-58.35Z"/>
  <path class="cls-1" d="M343.99,2.44h69.34c40.28,0,63.23,22.71,63.23,57.62,0,24.17-11.11,41.75-31.25,50.29l37.6,68.85h-40.53l-33.69-62.74h-28.08v62.74h-36.62V2.44ZM406.49,86.67c21.73,0,32.23-9.03,32.23-26.61s-10.5-27.59-32.23-27.59h-25.88v54.2h25.88Z"/>
  <path class="cls-1" d="M495.12,2.44h144.78v30.27h-54.2v146.48h-36.38V32.71h-54.2V2.44Z"/>
  <path class="cls-1" d="M662.6,2.44h116.46v30.27h-79.83v42.97h72.27v30.27h-72.27v73.24h-36.62V2.44Z"/>
  <path class="cls-1" d="M882.57,181.64c-47.12,0-82.76-33.45-82.76-90.82S835.45,0,882.57,0s82.52,33.2,82.52,90.82-35.89,90.82-82.52,90.82ZM882.57,32.47c-27.34,0-45.41,20.51-45.41,58.35s18.07,58.35,45.41,58.35,45.17-20.51,45.17-58.35-17.82-58.35-45.17-58.35Z"/>
  <path class="cls-1" d="M991.46,2.44h36.62v146.48h76.17v30.27h-112.79V2.44Z"/>
  <path class="cls-1" d="M1164.55,179.2h-36.62V2.44h36.62v176.76Z"/>
  <path class="cls-1" d="M1273.68,181.64c-47.12,0-82.76-33.45-82.76-90.82S1226.56,0,1273.68,0s82.52,33.2,82.52,90.82-35.89,90.82-82.52,90.82ZM1273.68,32.47c-27.34,0-45.41,20.51-45.41,58.35s18.07,58.35,45.41,58.35,45.17-20.51,45.17-58.35-17.82-58.35-45.17-58.35Z"/>
</svg>