<?xml version="1.0" encoding="UTF-8"?>
<svg id="Layer_1" data-name="Layer 1" xmlns="http://www.w3.org/2000/svg" viewBox="0 0 1317.38 181.64">
  <defs>
    <style>
      .cls-1 {
        fill: #fff;
      }
    </style>
  </defs>
  <path class="cls-1" d="M0,2.44h69.34c40.28,0,63.23,24.66,63.23,59.57s-23.44,59.57-64.21,59.57h-31.74v57.62H0V2.44ZM62.5,92.04c21.73,0,32.23-12.21,32.23-30.03s-10.5-29.54-32.23-29.54h-25.88v59.57h25.88Z"/>
  <path class="cls-1" d="M302,2.44v114.75c0,38.82-29.3,64.45-73.24,64.45s-73-25.63-73-64.45V2.44h36.62v111.82c0,20.26,14.4,35.16,36.38,35.16s36.38-14.89,36.38-35.16V2.44h36.87Z"/>
  <path class="cls-1" d="M331.79,2.44h70.31c39.06,0,58.59,18.8,58.59,45.41,0,20.75-13.43,33.69-31.74,37.84v1.71c20.02.98,38.82,16.85,38.82,42.97,0,28.08-21,48.83-61.04,48.83h-74.95V2.44ZM423.58,53.71c0-12.7-9.28-21.48-26.12-21.48h-29.05v44.19h28.32c15.38,0,26.86-8.54,26.86-22.71ZM429.69,126.95c0-14.89-11.23-25.39-29.3-25.39h-31.98v47.36h31.01c21.24,0,30.27-8.79,30.27-21.97Z"/>
  <path class="cls-1" d="M490.97,2.44h36.62v146.48h76.17v30.27h-112.79V2.44Z"/>
  <path class="cls-1" d="M664.06,179.2h-36.62V2.44h36.62v176.76Z"/>
  <path class="cls-1" d="M759.28,30.76c-18.55,0-28.81,8.54-29.05,20.26-.24,12.7,13.18,18.55,28.32,21.97l15.87,3.91c30.27,6.84,52.98,22.22,52.98,51.76,0,32.47-25.39,52.98-68.36,52.98s-70.07-19.78-71.04-57.62h35.64c1.22,17.82,15.38,26.86,34.91,26.86s31.74-9.03,31.74-22.22c0-11.96-10.99-17.58-30.27-22.46l-19.29-4.64c-29.79-7.32-48.1-22.22-48.1-48.1,0-32.23,28.32-53.47,66.89-53.47s64.94,21.73,65.43,52.98h-35.16c-1.46-13.92-12.7-22.22-30.52-22.22Z"/>
  <path class="cls-1" d="M851.32,2.44h36.62v73.24h76.66V2.44h36.87v176.76h-36.87v-73.24h-76.66v73.24h-36.62V2.44Z"/>
  <path class="cls-1" d="M1031.25,2.44h118.65v30.27h-82.03v42.97h75.93v30.27h-75.93v42.97h82.28v30.27h-118.9V2.44Z"/>
  <path class="cls-1" d="M1178.47,2.44h69.34c40.28,0,63.23,22.71,63.23,57.62,0,24.17-11.11,41.75-31.25,50.29l37.6,68.85h-40.53l-33.69-62.74h-28.08v62.74h-36.62V2.44ZM1240.97,86.67c21.73,0,32.23-9.03,32.23-26.61s-10.5-27.59-32.23-27.59h-25.88v54.2h25.88Z"/>
</svg>